<svg width="85" height="85" viewBox="0 0 85 85" fill="none" xmlns="http://www.w3.org/2000/svg">
<rect width="85" height="85" rx="6" fill="#E8FFEA"/>
<path d="M61.5162 40.5162C61.5162 35.5703 59.5902 30.9205 56.0929 27.4233C52.5957 23.926 47.9459 22 43.0001 22C38.0542 22 33.4044 23.926 29.9072 27.4233C26.4099 30.9205 24.4839 35.5703 24.4839 40.5162C24.4839 44.4118 25.6801 48.1391 27.943 51.295C30.157 54.3826 33.2104 56.687 36.7731 57.9589C37.3825 58.1763 38.0531 57.8587 38.2708 57.2493C38.4884 56.6397 38.1707 55.9692 37.5612 55.7516C35.6597 55.0727 33.9245 54.0562 32.4206 52.7529L34.3975 50.7759C34.8551 50.3184 34.8551 49.5763 34.3975 49.1187C33.9399 48.6611 33.1979 48.6611 32.7402 49.1187L30.7651 51.0938C30.4437 50.7212 30.1373 50.3331 29.8477 49.9292C28.1001 47.492 27.0819 44.6636 26.8699 41.688H31.8721C32.5193 41.688 33.044 41.1634 33.044 40.5162C33.044 39.869 32.5193 39.3443 31.8721 39.3443H26.8704C27.1279 35.765 28.5549 32.5045 30.771 29.9444L32.7402 31.9136C32.969 32.1424 33.269 32.2569 33.5688 32.2569C33.8687 32.2569 34.1687 32.1424 34.3975 31.9136C34.8551 31.456 34.8551 30.714 34.3975 30.2563L32.4283 28.2871C34.9883 26.071 38.2489 24.6441 41.8282 24.3865V29.3881C41.8282 30.0353 42.3529 30.56 43.0001 30.56C43.6472 30.56 44.1719 30.0353 44.1719 29.3881V24.3865C47.7512 24.6441 51.0118 26.071 53.5719 28.2871L51.6026 30.2563C51.145 30.7138 51.145 31.4558 51.6026 31.9135C51.8315 32.1424 52.1314 32.2568 52.4312 32.2568C52.7311 32.2568 53.0311 32.1423 53.2598 31.9135L55.229 29.9444C57.4451 32.5045 58.8721 35.765 59.1297 39.3443H54.128C53.4808 39.3443 52.9562 39.869 52.9562 40.5162C52.9562 41.1634 53.4808 41.688 54.128 41.688H59.1301C58.8731 45.2607 57.4504 48.5259 55.2325 51.0914L53.2597 49.1187C52.8022 48.6611 52.0601 48.6611 51.6025 49.1187C51.1448 49.5762 51.1448 50.3183 51.6025 50.7759L53.5756 52.7491C51.4956 54.5508 48.9491 55.8322 46.1331 56.3845L46.7962 55.7212C47.2539 55.2636 47.2539 54.5216 46.7962 54.064C46.3387 53.6064 45.5966 53.6064 45.139 54.064L42.1712 57.0317C41.7137 57.4893 41.7137 58.2313 42.1712 58.689L45.1389 61.6566C45.3677 61.8855 45.6676 61.9999 45.9675 61.9999C46.2673 61.9999 46.5673 61.8855 46.7961 61.6566C47.2537 61.1991 47.2537 60.457 46.7961 59.9994L45.6406 58.8439C54.6596 57.5569 61.5162 49.7891 61.5162 40.5162Z" fill="#235241"/>
<path d="M44.5669 40.6389C43.5067 40.2641 42.3341 39.8114 41.6768 39.2959C41.4702 39.1338 41.3808 38.7627 41.4543 38.3725C41.4909 38.1779 41.6624 37.5271 42.328 37.3266C43.421 36.9972 44.1702 37.4339 44.4416 37.637C44.9602 38.0246 45.6944 37.9184 46.082 37.4002C46.4695 36.8818 46.3635 36.1474 45.8452 35.7598C45.5991 35.5759 44.9831 35.1727 44.0997 34.9769V34.5C44.0997 33.8528 43.575 33.3281 42.9278 33.3281C42.2806 33.3281 41.7559 33.8528 41.7559 34.5V35.0534C41.7213 35.063 41.687 35.072 41.652 35.0825C40.3684 35.4691 39.4102 36.5635 39.151 37.9385C38.9126 39.2041 39.3261 40.4309 40.2302 41.1401C40.975 41.7243 42.0051 42.2193 43.7856 42.8487C44.971 43.2677 44.9453 44.2271 44.8792 44.6201C44.7452 45.4169 44.075 46.278 42.9199 46.2856C41.787 46.2926 41.4342 46.2371 40.564 45.6679C40.0224 45.3135 39.2961 45.4655 38.9418 46.007C38.5875 46.5487 38.7394 47.2749 39.2809 47.6293C40.2195 48.2433 40.912 48.4923 41.7559 48.5831V49.1187C41.7559 49.7659 42.2806 50.2906 42.9277 50.2906C43.5749 50.2906 44.0996 49.7659 44.0996 49.1187V48.4705C44.7452 48.2928 45.3336 47.9681 45.8364 47.506C46.5489 46.8513 47.0299 45.9645 47.1906 45.0086C47.5174 43.0652 46.4629 41.3091 44.5669 40.6389Z" fill="#235241"/>
</svg>
