<svg width="85" height="85" viewBox="0 0 85 85" fill="none" xmlns="http://www.w3.org/2000/svg">
<rect width="85" height="85" rx="6" fill="#E8FFEA"/>
<g clip-path="url(#clip0_105_152)">
<path d="M60.7824 44.6528C60.358 44.5709 59.949 44.8485 59.8674 45.2721C58.3144 53.3315 51.2206 59.1811 43 59.1811C34.9525 59.1811 27.985 53.5754 26.2381 45.7785L26.442 45.9824C26.5946 46.135 26.7945 46.2113 26.9944 46.2113C27.1943 46.2113 27.3943 46.135 27.5468 45.9825C27.8519 45.6774 27.8519 45.1828 27.5468 44.8776L25.9402 43.2709C25.7937 43.1243 25.595 43.042 25.3878 43.042C25.1806 43.042 24.9818 43.1243 24.8354 43.2709L23.2288 44.8776C22.9237 45.1827 22.9237 45.6773 23.2289 45.9825C23.5339 46.2876 24.0286 46.2875 24.3337 45.9824L24.6229 45.6932C26.3665 54.4218 34.0744 60.7436 43 60.7436C51.9682 60.7436 59.7072 54.3612 61.4017 45.5678C61.4833 45.1441 61.2061 44.7344 60.7824 44.6528Z" fill="#235241"/>
<path d="M62.7711 38.0189C62.4661 37.7137 61.9713 37.7138 61.6662 38.019L61.377 38.3082C59.6335 29.5796 51.9255 23.2578 43 23.2578C34.0318 23.2578 26.2927 29.6402 24.5982 38.4336C24.5166 38.8573 24.7939 39.267 25.2175 39.3486C25.6418 39.4301 26.0509 39.1528 26.1325 38.7293C27.6856 30.6698 34.7794 24.8203 43 24.8203C51.0474 24.8203 58.0149 30.426 59.7619 38.2229L59.558 38.019C59.253 37.7139 58.7583 37.7138 58.4531 38.0189C58.148 38.324 58.148 38.8186 58.453 39.1237L60.0596 40.7305C60.2061 40.877 60.4048 40.9594 60.612 40.9594C60.8192 40.9594 61.018 40.877 61.1644 40.7305L62.771 39.1237C63.0763 38.8187 63.0763 38.324 62.7711 38.0189Z" fill="#235241"/>
<path d="M42.9999 55.2063C50.2817 55.2063 56.206 49.282 56.206 42.0001C56.206 34.7182 50.2817 28.7939 42.9999 28.7939C35.718 28.7939 29.7937 34.7182 29.7937 42.0001C29.7937 49.282 35.718 55.2063 42.9999 55.2063ZM42.9999 30.3564C49.4203 30.3564 54.6435 35.5797 54.6435 42.0001C54.6435 48.4205 49.4203 53.6438 42.9999 53.6438C36.5795 53.6438 31.3562 48.4205 31.3562 42.0001C31.3562 35.5797 36.5795 30.3564 42.9999 30.3564Z" fill="#235241"/>
<path d="M43.8243 45.4443C43.919 45.482 44.0167 45.4998 44.1128 45.4998C44.4234 45.4998 44.7171 45.3133 44.8389 45.007L47.001 39.5712C47.1605 39.1702 46.9647 38.7159 46.5638 38.5565C46.1631 38.3971 45.7086 38.5927 45.5492 38.9937L43.3871 44.4296C43.2276 44.8305 43.4234 45.2848 43.8243 45.4443Z" fill="#235241"/>
<path d="M48.2392 40.0633H50.0329L48.1249 44.4036C47.9512 44.7986 48.1307 45.2596 48.5257 45.4332C48.628 45.4782 48.7347 45.4996 48.8397 45.4996C49.1402 45.4995 49.4267 45.3252 49.5553 45.0325L51.945 39.5966C52.0511 39.355 52.0283 39.0761 51.884 38.8552C51.7397 38.6342 51.4937 38.501 51.2298 38.501H48.2393C47.8079 38.501 47.458 38.8508 47.458 39.2822C47.4579 39.7135 47.8077 40.0633 48.2392 40.0633Z" fill="#235241"/>
<path d="M38.2389 43.5117C38.3794 43.7497 38.6352 43.8957 38.9116 43.8957H40.8435C40.8413 44.1837 40.839 44.4596 40.8369 44.7121C40.8332 45.1436 41.18 45.4964 41.6114 45.5001H41.6183C42.0465 45.5001 42.3956 45.1547 42.3994 44.7256C42.4011 44.5211 42.4035 44.231 42.4061 43.8916C42.7996 43.851 43.1065 43.5186 43.1065 43.1145C43.1065 42.7139 42.8051 42.3837 42.4165 42.3385C42.4236 41.0668 42.4262 39.7866 42.4103 39.5949C42.3685 39.0925 42.0616 38.6813 41.6285 38.5471C41.196 38.4133 40.7412 38.5747 40.4118 38.9789C40.1024 39.3584 38.7813 41.7335 38.2276 42.7371C38.094 42.9792 38.0983 43.2736 38.2389 43.5117ZM40.8586 41.2423C40.8575 41.5797 40.8558 41.951 40.8537 42.3332H40.2404C40.4576 41.9464 40.6686 41.5737 40.8586 41.2423Z" fill="#235241"/>
<path d="M37.7663 45.5405C38.1977 45.5351 38.543 45.1809 38.5376 44.7495C38.5323 44.3215 38.1836 43.9781 37.7567 43.9781C37.7533 43.9781 37.75 43.9781 37.7466 43.9782C37.3189 43.9835 36.8695 43.9875 36.4635 43.9894C36.7446 43.6089 37.1054 43.1102 37.5613 42.4589C37.9209 41.9451 38.156 41.4567 38.2602 41.0072C38.2858 40.9075 38.3071 40.7665 38.3073 40.6205C38.309 39.4227 37.3328 38.4482 36.135 38.4482C35.0994 38.4482 34.2031 39.1851 34.0036 40.2003C33.9204 40.6236 34.1961 41.0343 34.6196 41.1175C35.0432 41.2008 35.4536 40.9249 35.5368 40.5014C35.5926 40.2171 35.8443 40.0107 36.135 40.0107C36.4579 40.0107 36.7229 40.2631 36.7435 40.5808L36.7298 40.6878C36.6832 40.866 36.5668 41.1547 36.2812 41.5629C35.4221 42.7904 34.9096 43.4614 34.6343 43.8218C34.2812 44.2841 34.0868 44.5387 34.2167 44.9615C34.2932 45.21 34.4883 45.4083 34.7393 45.4921C34.8436 45.5268 34.9272 45.5547 35.9941 45.5547C36.413 45.5546 36.9835 45.5504 37.7663 45.5405Z" fill="#235241"/>
</g>
<defs>
<clipPath id="clip0_105_152">
<rect width="40" height="40" fill="white" transform="translate(23 22)"/>
</clipPath>
</defs>
</svg>
