<svg width="72" height="72" viewBox="0 0 72 72" fill="none" xmlns="http://www.w3.org/2000/svg">
<path d="M70.9113 35.0313H62.6374V31.2321H65.1677C66.708 31.2321 67.961 29.9791 67.961 28.4388V2.79346C67.961 1.25315 66.708 0 65.1677 0H25.8581C24.3178 0 23.0648 1.25315 23.0648 2.79346V6.57666C23.0648 7.93559 25.1721 7.93559 25.1721 6.57666V2.79346C25.1721 2.41513 25.4797 2.10732 25.8581 2.10732H65.1678C65.546 2.10732 65.8538 2.41513 65.8538 2.79346V23.2245H62.6375V11.9985C62.6375 11.6508 62.466 11.3256 62.1791 11.1292C61.8924 10.9328 61.5271 10.8905 61.2028 11.0161C60.9272 11.123 55.1141 13.4969 53.877 23.2243H25.1721V12.0555C25.1721 10.6966 23.0648 10.6966 23.0648 12.0555V28.4388C23.0648 29.9791 24.3178 31.2321 25.8581 31.2321H40.0117V35.0313H16.0881C18.4219 32.7001 18.6498 29.0085 18.6498 25.9068C18.6498 25.3249 18.1782 24.8531 17.5961 24.8531H11.9064V22.864C15.2865 23.5824 18.9712 20.8106 18.9261 17.2943C18.9201 16.8234 18.8616 16.3449 18.4266 16.0576C16.4252 14.7366 13.6688 15.287 11.9064 16.7296V14.8289C14.9175 12.7507 15.1411 7.85664 12.2476 5.57231C11.9561 5.34219 11.6335 5.12317 11.2875 4.98212C9.80243 4.37577 8.16996 7.02102 7.81607 8.04208C6.98003 10.4548 7.73628 13.2297 9.79892 14.7608V16.7179C8.44644 15.6175 6.68009 15.0748 4.95448 15.4204C4.24136 15.5632 2.99172 15.8859 2.8362 16.7504C2.16776 20.4699 6.38141 23.5841 9.79906 22.8671V24.8531H3.68784C3.1058 24.8531 2.63418 25.3249 2.63418 25.9068C2.63418 29.0041 2.8022 32.7004 5.13571 35.0313H1.08881C0.506774 35.0313 0.0351562 35.5031 0.0351562 36.085V70.8761C0.0351562 72.235 2.14247 72.235 2.14247 70.8761V65.959H21.1786V70.8761C21.1786 72.235 23.2859 72.235 23.2859 70.8761V44.0429H60.5454C60.5508 44.41 60.586 46.3874 60.5903 46.98H42.7583C38.5927 46.98 35.5064 48.0643 33.5848 50.2026C31.2777 52.7699 31.5814 55.882 31.5956 56.0131C31.6529 56.5485 32.1047 56.9545 32.6432 56.9545H46.2556V58.851H42.1113C40.7523 58.851 40.7523 60.9584 42.1113 60.9584H46.2556V69.8224H32.7688C31.4099 69.8224 31.4099 71.9298 32.7688 71.9298H46.9335C47.0504 71.9744 47.1767 72 47.3093 72C47.4419 72 47.5682 71.9744 47.6851 71.9298H61.8498C63.2087 71.9298 63.2087 69.8224 61.8498 69.8224H48.363V56.9546H55.4022C57.8212 56.9546 59.5697 56.3714 60.7481 55.1718C62.8131 53.0694 62.7502 49.5492 62.6705 45.0922C62.6643 44.7475 62.6583 44.3968 62.653 44.0428H69.8576V53.9473C69.8576 55.3063 71.9649 55.3063 71.9649 53.9473V36.085C71.9649 35.5031 71.4933 35.0313 70.9113 35.0313ZM13.6661 18.0521C15.0221 17.1918 16.2018 17.3945 16.816 17.6114C16.6306 19.7956 13.9752 21.3849 11.9456 20.6969C12.0307 20.0211 12.3738 18.872 13.6661 18.0521ZM6.66253 20.2439C5.76734 19.6759 5.0059 18.6978 4.90741 17.6108C7.01754 16.8691 9.49898 18.5125 9.77391 20.6969C8.75046 21.044 7.55968 20.813 6.66253 20.2439ZM10.9071 7.18862C12.6716 8.53084 12.5925 11.5942 10.9009 12.9562C10.379 12.527 9.5917 11.6242 9.5917 10.0845C9.59156 8.47872 10.3949 7.59126 10.9071 7.18862ZM4.75639 26.9605H16.5266C16.3482 32.6523 14.6494 34.898 10.6418 34.898C6.57936 34.8982 4.92722 32.7247 4.75639 26.9605ZM59.2447 53.6951C58.4831 54.4705 57.2263 54.8473 55.4022 54.8473H33.7189C33.8164 54.006 34.1412 52.7363 35.1523 51.6111C36.6572 49.9364 39.2162 49.0873 42.7585 49.0873H60.5633C60.4762 51.1523 60.1641 52.7592 59.2447 53.6951ZM65.8537 25.3318V28.4389C65.8537 28.8173 65.546 29.1249 65.1677 29.1249H62.6374V25.3318H65.8537ZM58.8821 15.6444C59.4559 14.8865 60.0327 14.3225 60.53 13.9134V40.3058C60.0344 39.8811 59.4618 39.3019 58.8921 38.5326C56.8389 35.7595 55.7535 31.7823 55.7535 27.0306C55.7535 22.2859 56.8355 18.3486 58.8821 15.6444ZM53.9295 31.2323C54.1307 32.6505 54.4287 33.9124 54.7918 35.0315H51.0141V31.2323H53.9295ZM25.1721 28.4388V25.3316H53.6901C53.6242 26.5949 53.6318 27.8625 53.7139 29.1248H25.8581C25.4797 29.1249 25.1721 28.8171 25.1721 28.4388ZM42.119 31.2323H48.9068V35.0315H42.119V31.2323ZM55.6193 37.1387C56.7172 39.4848 58.0801 41.0004 59.1828 41.9356H2.14247V37.1387H55.6193ZM2.14247 63.8517V55.001H21.1786V63.8517H2.14247ZM21.1786 52.8937H2.14247V44.0429H21.1786V52.8937ZM62.6374 41.9356V37.1387H69.8576V41.9356H62.6374Z" fill="white"/>
</svg>
