<svg width="56" height="72" viewBox="0 0 56 72" fill="none" xmlns="http://www.w3.org/2000/svg">
<path d="M50.3335 69.5182H30.478V63.7226C30.522 63.6717 30.564 63.6187 30.6021 63.5617C32.4856 59.7946 35.0384 56.922 37.2027 54.6239C44.3368 54.5666 48.6635 53.3156 51.4505 50.4074C54.1807 47.6773 55.4216 43.4581 55.2976 37.2532C55.2976 36.5086 54.6771 36.0122 54.0566 36.0122C42.6441 36.0122 35.6013 38.8049 35.4456 52.9064C33.8728 54.5714 32.1139 56.5137 30.478 58.8697V42.2169C30.478 40.6704 32.1891 37.6415 34.7357 34.7698C46.159 34.7148 51.5744 32.7953 51.5744 17.3975C51.5744 16.6528 51.078 16.1564 50.3333 16.1564C38.6603 16.1564 33.0713 17.8621 32.9623 33.0745C32.3379 33.7826 31.3978 34.904 30.5015 36.2008C30.4933 36.1554 30.4869 36.11 30.4777 36.0645V22.3612C30.4777 20.8661 30.5756 19.5662 30.7842 18.3765C34.7765 17.6567 38.4556 15.2874 40.5297 12.0611C42.5152 8.95868 42.8875 4.98762 41.6466 0.892425C41.3983 0.271912 40.9019 -0.10034 40.2815 0.0237904C33.8286 1.01656 29.2368 3.6226 27.3754 7.7178C25.9625 10.7793 26.3384 14.2876 28.3946 17.6068C28.1238 19.034 27.996 20.5862 27.996 22.3613V30.9518C26.9997 29.5568 25.9886 28.4488 25.51 27.948C25.4422 22.3675 24.4383 19.0519 22.1634 16.777C19.9296 14.5432 16.579 13.6745 11.8633 13.6745C11.1187 13.6745 10.6223 14.295 10.6223 14.9156C10.6223 23.713 12.9082 29.623 23.7579 29.803C25.1835 31.3325 27.9958 34.8651 27.9958 37.2531V53.2062C26.8273 51.6897 25.7012 50.6411 24.7693 49.7869C24.5987 49.6164 24.4288 49.4464 24.2701 49.2877C24.1534 31.9939 15.9809 28.5663 1.93536 28.5663C1.19072 28.5663 0.694336 29.0627 0.694336 29.8073C0.694336 43.6308 8.05095 50.7008 22.4066 50.899C22.6564 51.1488 22.906 51.3985 23.1558 51.6483C24.4885 52.8598 26.2941 54.5451 27.9957 57.511V69.5184H8.1405C7.39586 69.5184 6.89947 70.0148 6.89947 70.7594C6.89947 71.5041 7.39586 72.0005 8.1405 72.0005H50.3335C51.0781 72.0005 51.5745 71.5041 51.5745 70.7594C51.5745 70.0146 51.0781 69.5182 50.3335 69.5182ZM52.8154 38.494C52.6913 43.3338 51.6985 46.5602 49.713 48.6699C47.6306 50.868 44.3607 51.8794 39.101 52.1069C40.482 50.0724 42.2913 48.0965 44.749 47.0566C45.3695 46.8083 45.6176 46.0638 45.3695 45.4433C45.1212 44.8228 44.3767 44.5747 43.7562 44.8228C41.3844 45.8604 39.5885 47.4294 38.1561 49.1594C39.273 40.5436 44.0675 38.6061 52.8154 38.494ZM29.6092 8.7107C30.9743 5.60827 34.4491 3.49861 39.537 2.62998C40.2817 5.73241 39.9093 8.46258 38.4201 10.8204C36.7093 13.4936 33.8932 15.0604 31.4795 15.7604C31.9516 14.4685 32.6022 13.2435 33.4562 11.9373C33.8284 11.3167 33.7044 10.5722 33.0839 10.1999C32.4634 9.8276 31.7189 9.95159 31.3465 10.5721C30.5693 11.7583 29.9413 12.9043 29.4474 14.0853C28.8213 12.224 28.874 10.3653 29.6092 8.7107ZM13.1043 16.1566C16.4549 16.2807 18.8128 17.0252 20.4261 18.5144C21.7509 19.9411 22.5731 22.0381 22.8937 25.1474L20.302 22.3613C19.8056 21.8649 19.0609 21.7408 18.5645 22.2372C18.0682 22.7336 17.944 23.4782 18.4404 23.9746L21.3599 27.1861C14.8235 26.3803 13.2193 22.704 13.1043 16.1566ZM3.17667 31.0482C14.3552 31.2788 20.5027 33.8656 21.6214 45.5628C19.0202 42.1647 16.3466 39.849 13.6009 38.6181C12.9803 38.3698 12.2358 38.6181 11.9876 39.2386C11.7393 39.8591 11.9876 40.6036 12.6081 40.8519C15.3997 42.0329 18.0984 44.5156 20.7844 48.3782C9.18036 47.7346 3.53866 42.1484 3.17667 31.0482ZM49.0811 18.6451C48.8664 29.9533 45.6065 31.9707 37.0371 32.2497C38.5261 30.6154 40.5597 28.5424 42.3913 27.0772C43.0119 26.7049 43.0119 25.8361 42.6396 25.3397C42.2674 24.7192 41.3986 24.7192 40.9022 25.0915C39.0314 26.5371 37.0443 28.507 35.5394 30.1229C36.1692 20.1128 39.9464 18.7437 49.0811 18.6451Z" fill="#235241"/>
</svg>
