<svg width="85" height="85" viewBox="0 0 85 85" fill="none" xmlns="http://www.w3.org/2000/svg">
<rect width="85" height="85" rx="6" fill="#E8FFEA"/>
<path d="M49.875 32.625H24.875V31.375C24.875 30.6844 25.4344 30.125 26.125 30.125H48.625C49.3156 30.125 49.875 30.6844 49.875 31.375V32.625Z" fill="white"/>
<path d="M24.25 42.624H49.25V39.499V33.249H25.5006V36.374H24.2506V31.374C24.2506 30.3403 25.0919 29.499 26.1256 29.499H48.625C49.6587 29.499 50.5 30.3403 50.5 31.374V32.624H54.7231C55.3906 32.624 56.0188 32.884 56.4913 33.3559L60.3931 37.2578C60.865 37.7303 61.125 38.3584 61.125 39.0259V40.8821C61.8506 41.1409 62.375 41.8278 62.375 42.6415C62.375 43.4546 61.8512 44.1421 61.125 44.4009V45.7484C61.125 45.7521 61.1231 45.7546 61.1231 45.7584C61.1231 45.7615 61.125 45.764 61.125 45.7665V47.6415C61.125 49.0196 60.0038 50.1409 58.625 50.1409H56.75C56.4044 50.1409 56.125 49.8615 56.125 49.5159V48.8734H54.9812C55.3088 49.4296 55.5 50.0759 55.5 50.7665C55.5 52.834 53.8181 54.5159 51.75 54.5159C49.6825 54.5159 48 52.834 48 50.7665C48 50.0753 48.1912 49.4296 48.5188 48.8734H41.8562C42.1837 49.4296 42.375 50.0759 42.375 50.7665C42.375 52.834 40.6931 54.5159 38.625 54.5159C36.5575 54.5159 34.875 52.834 34.875 50.7665C34.875 50.0753 35.0663 49.4296 35.3938 48.8734H33.7312C34.0587 49.4296 34.25 50.0759 34.25 50.7665C34.25 52.834 32.5681 54.5159 30.5 54.5159C28.4325 54.5159 26.75 52.834 26.75 50.7665C26.75 50.0753 26.9412 49.4296 27.2688 48.8734H26.7506C25.7169 48.8734 24.8756 48.0321 24.8756 46.999V46.3734H24.2506C23.905 46.3734 23.6256 46.094 23.6256 45.7484V43.249C23.625 42.9034 23.905 42.624 24.25 42.624ZM48.625 30.7496H26.125C25.78 30.7496 25.5 31.0296 25.5 31.3746V31.9996H49.25V31.3746C49.25 31.0296 48.97 30.7496 48.625 30.7496ZM54.7238 33.8746H50.5V43.249V45.124H53.5037C53.24 44.4071 52.5569 43.8915 51.75 43.8915C51.4044 43.8915 51.125 43.6121 51.125 43.2671V41.3921H51.1287C51.1287 41.3859 51.125 41.3803 51.125 41.374V35.1246C51.125 34.779 51.4044 34.4996 51.75 34.4996H55.8656L55.6069 34.2409C55.375 34.0078 55.0525 33.8746 54.7238 33.8746ZM57.375 46.999H59.875V46.3915H57.375V46.999ZM59.875 45.1234V44.5159H59.25C58.9044 44.5159 58.625 44.2365 58.625 43.8909V41.999H52.375V42.704C53.5906 42.9521 54.5456 43.9109 54.8012 45.1234H59.875ZM60.5006 42.0171H59.8756V43.2665H60.5006C60.845 43.2659 61.125 42.9859 61.125 42.6415C61.125 42.2971 60.845 42.0171 60.5006 42.0171ZM59.5094 38.1421L57.1163 35.7496H52.375V40.7496H59.25V40.7678H59.875V39.0265C59.875 38.6971 59.7419 38.3746 59.5094 38.1421ZM58.625 48.8909C59.0931 48.8909 59.4969 48.6296 59.7112 48.2484H57.375V48.8909H58.625ZM51.75 53.2659C53.1287 53.2659 54.25 52.1446 54.25 50.7665C54.25 49.3878 53.1287 48.2665 51.75 48.2665C50.3713 48.2665 49.25 49.3878 49.25 50.7665C49.25 52.1446 50.3713 53.2659 51.75 53.2659ZM38.625 53.2659C40.0037 53.2659 41.125 52.1446 41.125 50.7665C41.125 49.3878 40.0037 48.2665 38.625 48.2665C37.2463 48.2665 36.125 49.3878 36.125 50.7665C36.125 52.1446 37.2463 53.2659 38.625 53.2659ZM30.5 53.2659C31.8787 53.2659 33 52.1446 33 50.7665C33 49.3878 31.8787 48.2665 30.5 48.2665C29.1213 48.2665 28 49.3878 28 50.7665C28 52.1446 29.1213 53.2659 30.5 53.2659ZM26.1256 46.999C26.1256 47.3434 26.4056 47.6234 26.7506 47.6234H28.4619C29.0494 47.2409 29.7487 47.0165 30.5 47.0165C31.2519 47.0165 31.9519 47.2409 32.5394 47.624H36.5856C37.1731 47.2415 37.8725 47.0165 38.625 47.0165C39.3769 47.0165 40.0769 47.2409 40.6644 47.624H49.7106C50.2981 47.2415 50.9975 47.0165 51.75 47.0165C52.5019 47.0165 53.2019 47.2409 53.7894 47.624H56.125V46.3734H49.875H26.1256V46.999ZM24.875 45.1234H49.25V43.874H24.875V45.1234Z" fill="#235241"/>
<path d="M51.75 49.5166C52.4394 49.5166 53 50.0766 53 50.7666C53 51.456 52.4394 52.016 51.75 52.016C51.0606 52.016 50.5 51.456 50.5 50.7666C50.5 50.0772 51.0606 49.5166 51.75 49.5166Z" fill="#235241"/>
<path d="M38.625 49.5166C39.3144 49.5166 39.875 50.0766 39.875 50.7666C39.875 51.456 39.3144 52.016 38.625 52.016C37.9356 52.016 37.375 51.456 37.375 50.7666C37.375 50.0772 37.9356 49.5166 38.625 49.5166Z" fill="#235241"/>
<path d="M30.5 49.5166C31.1894 49.5166 31.75 50.0766 31.75 50.7666C31.75 51.456 31.1894 52.016 30.5 52.016C29.8106 52.016 29.25 51.456 29.25 50.7666C29.25 50.0772 29.8106 49.5166 30.5 49.5166Z" fill="#235241"/>
<path d="M57.375 42.6416H54.875V43.891H57.375V42.6416Z" fill="#235241"/>
<path d="M44.875 36.375V35.125H47.375C47.7206 35.125 48 35.4044 48 35.75V41.375H46.75V38.875H44.875V37.625H46.75V36.375H44.875Z" fill="#235241"/>
<path d="M40.5 37C40.5 35.9662 41.3412 35.125 42.375 35.125H43.625C43.7912 35.125 43.95 35.1906 44.0669 35.3075C44.1844 35.4244 44.25 35.5838 44.25 35.75V41.375H43V39.0012L41.7506 39.8344V41.375H40.5006V39.5C40.5006 39.2913 40.605 39.0956 40.7787 38.98L41.3775 38.5813C40.8519 38.2481 40.5 37.6656 40.5 37ZM43 36.375H42.375C42.0306 36.375 41.75 36.655 41.75 37C41.75 37.3444 42.03 37.625 42.375 37.625H43V36.375Z" fill="#235241"/>
<path d="M36.75 36.375V35.125H39.25C39.5956 35.125 39.875 35.4044 39.875 35.75V40.75C39.875 41.0956 39.5956 41.375 39.25 41.375H36.75V40.125H38.625V38.875H36.75V37.625H38.625V36.375H36.75Z" fill="#235241"/>
<path d="M33 36.375V35.125H35.5C35.8456 35.125 36.125 35.4044 36.125 35.75V40.75C36.125 41.0956 35.8456 41.375 35.5 41.375H33V40.125H34.875V38.875H33V37.625H34.875V36.375H33Z" fill="#235241"/>
<path d="M31.75 40.125H24.25V41.375H31.75V40.125Z" fill="#235241"/>
<path d="M31.75 38.25H25.5V39.5H31.75V38.25Z" fill="#235241"/>
<path d="M31.75 36.375H26.75V37.625H31.75V36.375Z" fill="#235241"/>
</svg>
