<svg width="68" height="69" viewBox="0 0 68 69" fill="none" xmlns="http://www.w3.org/2000/svg">
<path d="M63.4244 32.229L61.4051 30.7249C61.3387 30.6506 61.2644 30.5842 61.1812 30.528C60.8459 30.3041 52.8843 25.1246 44.2331 30.5089C41.7108 32.0782 39.6982 34.3451 38.1074 36.7672C39.2043 33.3641 40.6488 29.7945 42.5242 26.7345C50.0786 24.6735 56.2706 19.4377 59.5578 12.3097L59.7716 11.8451C59.9594 11.4379 59.8874 10.9575 59.5882 10.6234C59.2878 10.2892 58.8187 10.1644 58.3934 10.3061C58.1066 10.4017 51.2621 12.7575 43.2768 21.8824C39.2527 26.4814 36.6719 33.237 35.0891 38.9171L35.0463 25.6342L35.1689 25.5971L35.0441 25.1786L34.9653 1.24536C34.9631 0.713232 34.5884 0.255357 34.0664 0.147357C33.5444 0.0427319 33.0191 0.312732 32.8087 0.802107L28.5899 10.5255C28.4842 10.7685 28.4684 11.0407 28.5438 11.2961L32.7952 25.5127L32.8256 34.7681C31.3372 27.2092 29.1513 19.134 26.3174 16.6916C20.6699 11.8237 15.8471 9.45786 11.5709 9.45786C7.13843 9.45786 1.18718 13.1794 0.936306 13.338C0.532431 13.5934 0.333306 14.076 0.440181 14.5417C0.548181 15.0075 0.936306 15.3551 1.41218 15.408L5.70856 15.885C10.3031 16.3957 14.7817 17.5905 19.0229 19.4355L20.0827 19.8967L28.1006 24.9694C29.3122 28.8146 30.3584 33.7095 31.1786 38.3085C29.5259 35.3385 27.2579 32.4202 24.1889 30.5111C15.5377 25.1291 7.57493 30.3075 7.24081 30.5302C7.15756 30.5854 7.08218 30.6517 7.01693 30.7271L4.99756 32.2312C1.98706 34.4745 0.346806 38.0486 0.608931 41.7926L1.31881 51.975C1.35706 52.524 1.78681 52.965 2.33468 53.0167C2.37068 53.0201 2.40556 53.0212 2.44268 53.0212C2.77231 53.0212 3.06818 52.8671 3.27743 52.6286L3.28756 52.6376L7.06418 48.3322C10.6181 44.28 13.2607 39.3941 14.7041 34.2022L15.7796 30.3345C17.9553 30.3199 20.4416 30.8272 23.0009 32.4202C29.2357 36.2992 31.9042 45.3049 32.6771 48.501H21.6251C21.0029 48.501 20.5001 49.005 20.5001 49.626C20.5001 56.7607 22.1538 63.5366 25.0372 68.2166C25.2431 68.5474 25.6053 68.7499 25.9957 68.7499H42.0044C42.3948 68.7499 42.7571 68.5474 42.9629 68.2155C45.8463 63.5355 47.5001 56.7596 47.5001 49.6249C47.5001 49.0039 46.9972 48.4999 46.3751 48.4999H35.4389C36.3626 45.1102 39.2887 36.2362 45.4211 32.4191C47.9804 30.8261 50.4667 30.3187 52.6436 30.3334L53.7179 34.2011C55.1613 39.393 57.8039 44.2789 61.3578 48.3311L65.1344 52.6376L65.1446 52.6286C65.3538 52.8671 65.6497 53.0212 65.9793 53.0212C66.0153 53.0212 66.0502 53.0201 66.0873 53.0167C66.6352 52.965 67.0649 52.524 67.1032 51.975L67.8142 41.7915C68.0752 38.0464 66.4338 34.4722 63.4244 32.229ZM44.9722 23.3662C49.4441 18.2554 53.5582 15.3731 56.1817 13.8679C53.5019 18.2576 49.5172 21.6517 44.7708 23.5991C44.8372 23.5204 44.9036 23.4427 44.9722 23.3662ZM30.8163 11.0441L32.7322 6.62848L32.7682 17.5725L30.8163 11.0441ZM21.2122 17.9471C21.1638 17.9167 21.1132 17.8897 21.0592 17.8661L19.9196 17.37C15.4724 15.435 10.7744 14.1817 5.95606 13.6462L5.22931 13.5652C7.14293 12.6517 9.60331 11.7045 11.5698 11.7045C15.2846 11.7045 19.6271 13.8926 24.8471 18.3926C25.5344 18.9855 26.1959 20.07 26.8248 21.4976L21.2122 17.9471ZM5.93131 34.3575L3.09068 45.0574L2.85218 41.634C2.65643 38.8316 3.80056 36.1496 5.93131 34.3575ZM12.5339 33.5981C11.1806 38.4671 8.70443 43.0481 5.37106 46.8472L4.75906 47.5459L8.83493 32.1896C9.52568 31.7936 11.1761 30.9656 13.3788 30.5606L12.5339 33.5981ZM41.3654 66.4999H26.6347C24.3048 62.4386 22.9177 56.7889 22.7647 50.7499H45.2366C45.0824 56.7889 43.6953 62.4386 41.3654 66.4999ZM65.5698 41.634L65.3313 45.0596L62.4907 34.3564C64.6203 36.1496 65.7644 38.8316 65.5698 41.634ZM55.8869 33.5981L55.0432 30.5606C57.2471 30.9656 58.8974 31.7936 59.5871 32.1885L63.6629 47.5447L63.0509 46.8472C59.7164 43.0481 57.2403 38.4671 55.8869 33.5981Z" fill="#235241"/>
</svg>
