<svg width="108" height="16" viewBox="0 0 108 16" fill="none" xmlns="http://www.w3.org/2000/svg">
<path d="M7.99978 12.1735L3.29778 14.8055L4.34778 9.52016L0.391113 5.8615L5.74245 5.22683L7.99978 0.333496L10.2571 5.22683L15.6084 5.8615L11.6518 9.52016L12.7018 14.8055L7.99978 12.1735Z" fill="#F4C300"/>
<path d="M29.9998 12.1735L25.2978 14.8055L26.3478 9.52016L22.3911 5.8615L27.7424 5.22683L29.9998 0.333496L32.2571 5.22683L37.6084 5.8615L33.6518 9.52016L34.7018 14.8055L29.9998 12.1735Z" fill="#F4C300"/>
<path d="M51.9998 12.1735L47.2978 14.8055L48.3478 9.52016L44.3911 5.8615L49.7424 5.22683L51.9998 0.333496L54.2571 5.22683L59.6084 5.8615L55.6518 9.52016L56.7018 14.8055L51.9998 12.1735Z" fill="#F4C300"/>
<path d="M73.9998 12.1735L69.2978 14.8055L70.3478 9.52016L66.3911 5.8615L71.7424 5.22683L73.9998 0.333496L76.2571 5.22683L81.6084 5.8615L77.6518 9.52016L78.7018 14.8055L73.9998 12.1735Z" fill="#F4C300"/>
<path d="M98.0001 12.1735L92.1226 14.8055L93.4351 9.52016L88.4893 5.8615L95.1784 5.22683L98.0001 0.333496L100.822 5.22683L107.511 5.8615L102.565 9.52016L103.878 14.8055L98.0001 12.1735ZM98.0001 10.6455L101.539 12.2302L100.748 9.04816L103.726 6.84483L99.6984 6.46283L98.0001 3.51683L96.3018 6.4635L92.2743 6.84483L95.2518 9.04816L94.4609 12.2302L98.0001 10.6455Z" fill="#F4C300"/>
</svg>
